<?xml version="1.0" standalone="no"?><!DOCTYPE svg PUBLIC "-//W3C//DTD SVG 1.1//EN" "http://www.w3.org/Graphics/SVG/1.1/DTD/svg11.dtd"><svg t="1694586740041" class="icon" viewBox="0 0 1024 1024" version="1.1" xmlns="http://www.w3.org/2000/svg" p-id="4183" xmlns:xlink="http://www.w3.org/1999/xlink" width="200" height="200"><path d="M929.336889 630.158222l76.060444 47.331556c24.803556 15.36 24.803556 40.391111 0 55.751111L556.942222 1012.451556c-13.710222 7.907556-29.184 11.889778-44.885333 11.605333-16.156444 0-32.426667-3.868444-44.885333-11.605333L18.602667 733.297778c-24.803556-15.416889-24.803556-40.448 0-55.808l76.060444-47.331556 346.112 215.381334c19.911111 12.288 45.112889 19.057778 71.224889 19.057777 26.112 0 51.313778-6.769778 71.224889-19.057777l346.112-215.381334z m0.056889-196.949333l76.060444 47.388444c24.746667 15.36 24.746667 40.391111 0 55.751111l-448.568889 279.153778c-13.710222 7.850667-29.184 11.832889-44.885333 11.548445-16.213333 0-32.426667-3.868444-44.885333-11.548445L18.602667 536.348444c-24.803556-15.36-24.803556-40.391111 0-55.751111l76.060444-47.388444 346.112 215.381333c19.911111 12.401778 45.112889 19.114667 71.224889 19.114667 26.112 0 51.313778-6.712889 71.224889-19.114667l346.168889-215.381333zM512 0c16.156444 0 32.426667 3.754667 44.885333 11.377778l448.512 276.081778c24.803556 15.246222 24.803556 39.992889 0 55.182222L556.942222 618.666667c-13.710222 7.793778-29.184 11.776-44.885333 11.491555-16.156444 0-32.426667-3.868444-44.885333-11.491555L18.602667 342.641778c-24.803556-15.189333-24.803556-39.992889 0-55.182222L467.057778 11.377778c12.458667-7.623111 28.728889-11.377778 44.942222-11.377778z" fill="#FFFFFF" p-id="4184"></path></svg>